<svg xmlns="http://www.w3.org/2000/svg" width="36" height="36" viewBox="0 0 36 36" role="img" aria-label="Yu-Gi-Oh cards collection">
  <title>Yu-Gi-Oh! cards collection</title>
  <desc>Three Yu-Gi-Oh style cards fanned within bounds with stars and pyramid motif.</desc>
  <g fill="none" stroke="currentColor" stroke-width="1.4" stroke-linecap="round" stroke-linejoin="round">
    <!-- Left card -->
    <g transform="translate(11,16) rotate(-22)">
      <rect x="-5.5" y="-9" width="11" height="18" rx="1.4"></rect>
      <g fill="currentColor" stroke="none">
        <polygon points="0,-0.42 0.12,-0.14 0.42,-0.12 0.16,0.07 0.26,0.37 0,0.2 -0.26,0.37 -0.16,0.07 -0.42,-0.12 -0.12,-0.14" transform="translate(-3.5,-7) scale(1.3)"></polygon>
        <polygon points="0,-0.42 0.12,-0.14 0.42,-0.12 0.16,0.07 0.26,0.37 0,0.2 -0.26,0.37 -0.16,0.07 -0.42,-0.12 -0.12,-0.14" transform="translate(-1.5,-7) scale(1.3)"></polygon>
        <polygon points="0,-0.42 0.12,-0.14 0.42,-0.12 0.16,0.07 0.26,0.37 0,0.2 -0.26,0.37 -0.16,0.07 -0.42,-0.12 -0.12,-0.14" transform="translate(0.5,-7) scale(1.3)"></polygon>
      </g>
      <polygon points="0 3.5 -2 -0.5 2 -0.5" fill="currentColor" fill-opacity=".15"></polygon>
      <circle cx="0" cy="1.5" r="0.5" fill="currentColor" stroke="none"></circle>
    </g>

    <!-- Middle card -->
    <g transform="translate(18,13)">
      <rect x="-5.5" y="-9" width="11" height="18" rx="1.4"></rect>
      <g fill="currentColor" stroke="none">
        <polygon points="0,-0.42 0.12,-0.14 0.42,-0.12 0.16,0.07 0.26,0.37 0,0.2 -0.26,0.37 -0.16,0.07 -0.42,-0.12 -0.12,-0.14" transform="translate(-3.5,-7) scale(1.3)"></polygon>
        <polygon points="0,-0.42 0.12,-0.14 0.42,-0.12 0.16,0.07 0.26,0.37 0,0.2 -0.26,0.37 -0.16,0.07 -0.42,-0.12 -0.12,-0.14" transform="translate(-1.5,-7) scale(1.3)"></polygon>
        <polygon points="0,-0.42 0.12,-0.14 0.42,-0.12 0.16,0.07 0.26,0.37 0,0.2 -0.26,0.37 -0.16,0.07 -0.42,-0.12 -0.12,-0.14" transform="translate(0.5,-7) scale(1.3)"></polygon>
      </g>
      <polygon points="0 3.5 -2 -0.5 2 -0.5" fill="currentColor" fill-opacity=".15"></polygon>
      <circle cx="0" cy="1.5" r="0.5" fill="currentColor" stroke="none"></circle>
    </g>

    <!-- Right card -->
    <g transform="translate(25,16) rotate(22)">
      <rect x="-5.5" y="-9" width="11" height="18" rx="1.4"></rect>
      <g fill="currentColor" stroke="none">
        <polygon points="0,-0.42 0.12,-0.14 0.42,-0.12 0.16,0.07 0.26,0.37 0,0.2 -0.26,0.37 -0.16,0.07 -0.42,-0.12 -0.12,-0.14" transform="translate(-3.5,-7) scale(1.3)"></polygon>
        <polygon points="0,-0.42 0.12,-0.14 0.42,-0.12 0.16,0.07 0.26,0.37 0,0.2 -0.26,0.37 -0.16,0.07 -0.42,-0.12 -0.12,-0.14" transform="translate(-1.5,-7) scale(1.3)"></polygon>
        <polygon points="0,-0.42 0.12,-0.14 0.42,-0.12 0.16,0.07 0.26,0.37 0,0.2 -0.26,0.37 -0.16,0.07 -0.42,-0.12 -0.12,-0.14" transform="translate(0.5,-7) scale(1.3)"></polygon>
      </g>
      <polygon points="0 3.5 -2 -0.5 2 -0.5" fill="currentColor" fill-opacity=".15"></polygon>
      <circle cx="0" cy="1.5" r="0.5" fill="currentColor" stroke="none"></circle>
    </g>
  </g>
</svg>
